<?xml version="1.0" encoding="utf-8"?>
<!-- Generator: Adobe Illustrator 27.0.0, SVG Export Plug-In . SVG Version: 6.00 Build 0)  -->
<svg version="1.1" id="Layer_1" xmlns="http://www.w3.org/2000/svg" xmlns:xlink="http://www.w3.org/1999/xlink" x="0px" y="0px"
	 viewBox="0 0 512 512" style="enable-background:new 0 0 512 512;" xml:space="preserve">
<style type="text/css">
	.st0{fill:#C32032;}
	.st1{fill:#FFFFFF;}
</style>
<g id="XMLID_1_">
	<path id="path3455" class="st0" d="M443.69,358.96c-1.89-1.08-3.91-1.62-6.06-1.62s-4.04,0.54-6.06,1.62
		c-2.02,1.08-3.5,2.56-4.72,4.58c-1.08,2.02-1.62,4.18-1.62,6.33s0.54,4.18,1.62,6.2c1.08,2.02,2.56,3.5,4.58,4.58
		s3.91,1.62,6.06,1.62s4.18-0.54,6.06-1.62c1.89-1.08,3.5-2.56,4.58-4.58s1.62-4.04,1.62-6.2s-0.54-4.31-1.62-6.33
		C447.06,361.65,445.57,360.17,443.69,358.96 M446.52,375.12c-0.94,1.62-2.29,2.96-3.91,3.91c-1.62,0.94-3.23,1.35-4.99,1.35
		c-1.75,0-3.5-0.4-4.99-1.35c-1.62-0.94-2.96-2.16-3.77-3.91c-0.94-1.62-1.21-3.23-1.21-5.12c0-1.75,0.4-3.5,1.35-5.25
		c0.94-1.62,2.16-2.96,3.77-3.91c1.62-0.94,3.23-1.35,4.99-1.35s3.37,0.4,4.99,1.35s2.83,2.16,3.91,3.91
		c0.94,1.62,1.21,3.37,1.21,5.25C447.73,371.76,447.33,373.51,446.52,375.12 M439.65,371.49c-0.27-0.27-0.54-0.54-1.08-0.67
		c1.08-0.13,2.16-0.54,2.83-1.21c0.67-0.67,0.94-1.62,0.94-2.56c0-0.67-0.13-1.35-0.54-2.02c-0.4-0.54-0.94-1.08-1.62-1.21
		c-0.67-0.27-1.89-0.4-3.23-0.4h-4.58v13.34h2.16v-5.66h1.21c0.81,0,1.21,0.13,1.75,0.4c0.54,0.4,1.21,1.48,2.16,3.1l1.21,2.16h2.56
		l-1.62-2.56C440.86,372.97,440.32,372.03,439.65,371.49 M436.95,369.2h-2.56v-4.04h2.43c0.94,0,1.75,0.13,2.02,0.27
		c0.4,0.27,0.81,0.4,0.94,0.67c0.27,0.4,0.27,0.67,0.27,1.08c0,0.67-0.27,1.08-0.67,1.48C438.97,369.06,438.16,369.2,436.95,369.2
		 M0,129.63l49.04,232.02l3.77-1.89c52.14-27.35,104.29-25.73,138.78-19.54c37.59,6.74,62.92,20.08,63.19,20.21l1.35,0.81l1.35-0.67
		c61.57-27.35,112.51-25.87,144.3-19.67c34.49,6.74,54.7,19.94,54.84,20.21l3.91,2.56l0.94-4.58L512,129.63H0z"/>
	<path id="path3457" class="st1" d="M354.63,181.78v17.52h9.16l-4.58,13.07h4.18l9.97-11.99l0,0v-18.59H354.63z M180.14,192.42
		c-27.22,0-43.52,15.23-43.52,40.56c0,25.47,15.63,40.69,45.14,40.69c26.81,0,39.07-10.24,41.9-27.62h-23.98
		c-1.35,6.74-7.55,9.03-15.76,9.03c-9.57,0-15.63-6.6-15.63-17.38h54.97c0.27-1.21,0.4-2.96,0.4-4.72
		C223.66,211.02,209.25,192.42,180.14,192.42z M414.99,192.69c-24.12,0-39.61,9.7-39.61,26.27c0,30.99,45.95,20.48,45.95,31.39
		c0,4.18-3.37,6.33-9.84,6.33c-7.41,0-12.67-3.37-12.67-9.97H374.7v0.4c0,14.01,9.84,25.6,36.11,25.6
		c29.78,0,41.09-11.86,41.09-26.95c0-31.53-48.1-19.67-48.1-31.8c0-2.43,3.1-5.25,11.05-5.25c7.81,0,12.4,3.64,12.4,7.41h22.1
		C449.48,203.34,436.41,192.69,414.99,192.69z M317.98,194.17v76.93h28.83v-76.93H317.98z M215.71,194.31l37.73,76.93h23.71
		l36.51-76.93h-23.71l-20.35,44.33h-0.54l-20.21-44.33L215.71,194.31L215.71,194.31z M63.06,194.98v76.13h72.22v-19.4H91.76v-56.72
		L63.06,194.98L63.06,194.98z M180.41,208.86c8.22,0,10.91,6.74,10.91,15.23h-21.96C169.36,216.54,172.19,208.86,180.41,208.86z"/>
</g>
</svg>
