<?xml version="1.0" encoding="utf-8"?>
<!-- Generator: Adobe Illustrator 26.5.0, SVG Export Plug-In . SVG Version: 6.00 Build 0)  -->
<svg version="1.1" id="Layer_1" xmlns="http://www.w3.org/2000/svg" xmlns:xlink="http://www.w3.org/1999/xlink" x="0px" y="0px"
	 viewBox="0 0 512 512" style="enable-background:new 0 0 512 512;" xml:space="preserve">
<g id="XMLID_1_">
	<path id="XMLID_5_" d="M82.61,166.66c47.83,0,59.06,47.13,52.32,89.22S101.97,345.24,54,345.24S-4.92,298.1,1.81,256.02
		C8.55,213.94,34.78,166.66,82.61,166.66z M61.01,301.75c17.82,0,24.13-35.07,25.81-45.73c1.68-10.8,6.59-45.73-11.22-45.73
		s-24.13,35.07-25.81,45.73C48.11,266.68,43.2,301.75,61.01,301.75z"/>
	<path id="XMLID_9_" d="M159.91,169.75h55.41c27.78,0,58.22,11.92,52.32,49.24c-3.09,19.36-18.24,34.51-38.16,34.51l-0.14,0.42
		c22.87,1.82,32.83,15.99,29.18,39.14c-3.37,21.32-20.9,49.24-62.84,49.24h-63.41L159.91,169.75z M189.37,304.98
		c10.38,0,20.48-5.05,22.3-16.69c1.82-11.64-6.45-16.55-17.25-16.55h-3.65l-5.33,33.25L189.37,304.98L189.37,304.98L189.37,304.98z
		 M199.04,236.8c9.68,0,19.36-3.93,21.18-15.15c1.68-10.38-4.77-14.59-14.59-14.59h-4.63l-4.77,29.74H199.04z"/>
	<polygon id="XMLID_10_" points="289.38,169.75 377.06,169.75 370.46,210.43 330.06,210.43 326.14,234.42 362.47,234.42 
		356.02,275.24 319.68,275.24 315.48,301.61 355.88,301.61 349.42,342.29 261.75,342.29 	"/>
	<polygon id="XMLID_11_" points="396.56,342.29 408.2,269.07 381.13,169.75 430.08,169.75 437.8,223.05 438.22,223.05 
		463.19,169.75 512.01,169.75 455.33,269.07 443.69,342.29 	"/>
	<path id="XMLID_16_" d="M493.07,337.24c-3.37,3.37-7.58,5.19-12.34,5.19c-4.77,0-8.98-1.68-12.34-5.19
		c-3.37-3.37-5.05-7.58-5.05-12.34c0-4.77,1.68-8.84,5.05-12.34c3.37-3.37,7.58-5.05,12.34-5.05c4.91,0,8.98,1.68,12.34,5.05
		s5.05,7.58,5.05,12.34C498.26,329.67,496.43,333.73,493.07,337.24z M470.06,314.24c-2.95,2.95-4.35,6.45-4.35,10.66
		c0,4.21,1.4,7.72,4.35,10.66s6.45,4.35,10.66,4.35s7.72-1.4,10.66-4.35c2.95-2.95,4.35-6.45,4.35-10.66
		c0-4.21-1.54-7.72-4.35-10.66c-2.95-2.95-6.45-4.49-10.66-4.49S473.01,311.29,470.06,314.24z M480.44,315.08
		c2.38,0,4.07,0.28,5.19,0.7c1.96,0.84,2.95,2.38,2.95,4.91c0,1.68-0.7,2.95-1.82,3.79c-0.7,0.42-1.54,0.7-2.81,0.98
		c1.54,0.28,2.52,0.84,3.23,1.82c0.7,0.98,0.98,1.96,0.98,2.95v1.4c0,0.42,0,0.98,0,1.4c0,0.56,0.14,0.84,0.14,0.98l0.14,0.28h-3.23
		v-0.14c0,0,0-0.14,0-0.28l-0.14-0.56v-1.54c0-2.24-0.56-3.65-1.82-4.35c-0.7-0.42-1.96-0.56-3.79-0.56h-2.67v7.58h-3.23v-19.22
		h6.87V315.08z M483.95,318.3c-0.84-0.42-2.24-0.7-4.07-0.7h-2.95v6.87h3.09c1.4,0,2.52-0.14,3.23-0.42
		c1.26-0.56,1.96-1.54,1.96-2.95C485.35,319.57,484.93,318.72,483.95,318.3z"/>
</g>
</svg>
